<svg width="1922" height="30" viewBox="0 0 1922 30" fill="none" xmlns="http://www.w3.org/2000/svg">
<path d="M1921.3 19.3103C1921.3 19.3103 1871.83 14.5715 1826.42 14.2409C1780.34 13.9103 1741.03 14.2409 1684.78 15.894C1608.2 18.098 1460.46 27.0245 1381.84 22.1756C1303.23 17.3266 1299.84 17.1062 1259.86 14.0205C1215.13 10.494 1124.32 3.44097 1011.82 3.77158C891.863 4.1022 674.319 22.0654 584.861 21.1837C575.373 21.0735 540.133 20.3021 513.702 18.9797C487.949 17.6572 449.998 14.7919 398.492 13.8001C376.805 13.3593 342.242 12.5879 302.257 12.8083C292.092 12.9185 259.562 13.2491 220.933 14.5715C182.303 15.894 146.385 17.9878 113.855 18.649C44.051 19.8613 0 18.098 0 18.098V30H1921.3V19.3103ZM1767.46 17.547C1762.72 18.649 1753.91 17.9878 1738.32 17.9878C1722.73 17.9878 1696.98 19.3103 1699.01 19.2001C1701.05 19.0899 1720.02 17.547 1739.67 17.1062C1760.01 16.5552 1771.53 16.445 1767.46 17.547ZM1642.76 20.5225C1642.76 20.5225 1626.5 20.7429 1604.81 21.5143C1583.12 22.396 1535.01 24.6 1502.48 25.3715C1446.9 26.5837 1395.4 25.3715 1400.14 25.2613C1405.56 25.151 1465.2 25.9225 1519.42 24.049C1541.78 23.2776 1582.45 21.6245 1603.46 21.0735C1625.82 20.4123 1642.76 20.5225 1642.76 20.5225ZM1255.11 20.6327C1266.63 21.4041 1164.98 15.4531 1129.74 13.9103C1115.51 13.2491 1087.72 12.147 1061.97 11.7062C1035.54 11.2654 1001.65 11.2654 1002.33 11.1552C1002.33 10.9348 1041.64 10.2736 1078.23 11.1552C1114.83 12.0368 1113.47 12.3675 1129.74 12.9185C1155.49 13.8001 1243.59 19.8613 1255.11 20.6327ZM1349.32 22.396C1350.67 22.396 1343.89 22.8368 1316.79 21.1837C1289.68 19.5307 1271.38 17.3266 1270.02 17.1062C1268.67 16.996 1293.74 19.0899 1314.75 20.4123C1335.08 21.7347 1348.64 22.396 1349.32 22.396ZM1917.91 23.3878C1917.23 23.2776 1905.04 22.1756 1885.38 20.6327C1865.73 19.0899 1838.62 17.547 1839.98 17.6572C1841.33 17.6572 1863.69 18.3184 1890.13 20.4123C1916.56 22.5062 1918.59 23.498 1917.91 23.3878ZM212.122 17.2164C212.8 17.4368 199.246 17.4368 181.626 18.5388C164.005 19.6409 145.029 20.3021 128.764 20.7429C101.656 21.6245 49.4726 20.6327 52.1835 20.5225C54.2166 20.4123 107.755 20.8531 136.897 19.7511C151.806 19.2001 153.162 19.2001 175.526 17.9878C197.891 16.7756 211.445 16.8858 212.122 17.2164ZM494.726 19.8613C497.437 19.9715 518.446 21.6245 551.654 22.7266C584.861 23.9388 611.97 23.2776 611.97 23.6082C611.97 23.9388 605.193 24.6 569.952 23.9388C534.711 23.2776 492.016 19.7511 494.726 19.8613ZM485.238 22.6164C486.594 22.5062 508.28 24.049 523.868 24.4898C539.455 24.8204 536.744 25.0408 536.744 25.151C536.744 25.2613 529.289 25.3715 518.446 24.9306C506.925 24.3796 483.883 22.7266 485.238 22.6164ZM634.334 25.151C635.012 24.9306 658.054 24.2694 672.286 23.1674C686.517 22.0654 684.484 22.5062 685.162 22.6164C685.84 22.7266 679.74 23.498 668.897 24.049C658.054 24.7102 633.656 25.3715 634.334 25.151ZM443.221 17.7674C442.543 17.4368 445.254 17.2164 456.097 17.9878C466.94 18.7593 473.717 19.4205 471.007 19.3103C468.296 19.2001 464.907 18.8695 454.064 18.4286C442.543 17.9878 443.898 18.098 443.221 17.7674ZM233.809 16.3348C232.454 16.3348 248.041 15.4531 256.173 15.3429C264.306 15.2327 269.728 15.2327 269.728 15.5634C269.728 15.894 269.05 16.1144 258.884 16.0042C248.041 15.894 235.164 16.3348 233.809 16.3348ZM1031.47 6.74708C1030.79 6.63687 1015.21 7.07769 980.642 7.07769C946.757 7.07769 888.474 9.72257 864.077 10.9348C839.679 12.147 931.847 6.63687 975.898 6.41647C1019.95 6.19606 1032.15 6.85728 1031.47 6.74708Z" fill="white"/>
<path d="M1827.1 10.1634C1826.42 10.2736 1795.92 9.83277 1778.3 10.1634C1728.83 10.9348 1663.09 13.6899 1665.8 13.3593C1668.52 13.0287 1758.65 9.94298 1781.01 9.72257C1814.22 9.28176 1827.78 10.1634 1827.1 10.1634Z" fill="white"/>
<path d="M1541.11 19.2001C1539.75 19.3103 1510.61 20.3021 1476.72 20.5225C1442.84 20.7429 1390.66 19.8613 1393.37 19.9715C1395.4 20.0817 1433.35 21.9552 1483.5 21.2939C1533.65 20.6327 1542.46 19.0899 1541.11 19.2001Z" fill="white"/>
<path d="M1385.91 15.2327C1385.23 15.3429 1399.47 16.3348 1407.6 16.445C1415.73 16.5552 1421.15 16.445 1421.15 16.1144C1421.15 15.7838 1420.47 15.5634 1410.31 15.6736C1398.79 15.7838 1386.59 15.1225 1385.91 15.2327Z" fill="white"/>
<path d="M1362.19 18.3184C1362.19 18.4286 1332.37 16.996 1319.5 15.894C1306.62 14.9021 1277.48 12.4777 1278.16 12.4777C1278.83 12.3675 1306.62 14.2409 1320.85 15.3429C1335.08 16.445 1362.19 18.2082 1362.19 18.3184Z" fill="white"/>
<path d="M1047.06 0.575685C1046.38 0.685889 1015.88 0.245075 998.263 0.575685C948.79 1.34711 883.052 4.1022 885.763 3.77159C888.474 3.44098 978.609 0.355279 1000.97 0.134872C1034.18 -0.305942 1047.74 0.465482 1047.06 0.575685Z" fill="white"/>
<path d="M283.959 8.73074C283.959 8.73074 292.092 9.06135 303.613 8.84094C315.134 8.62053 342.92 7.84911 359.185 8.06952C387.649 8.51033 409.335 11.045 406.624 10.9348C403.914 10.9348 377.483 8.51033 348.342 8.84094C336.143 8.95114 313.779 9.39196 302.935 9.28176C292.092 9.17155 283.959 8.73074 283.959 8.73074Z" fill="white"/>
<path d="M511.669 16.1144C513.024 16.0042 525.223 16.996 540.81 17.3266C556.398 17.547 555.042 17.6572 555.042 17.8776C555.042 17.9878 542.843 18.3184 532 17.8776C521.157 17.3266 510.314 16.2246 511.669 16.1144Z" fill="white"/>
<path d="M105.722 15.4531C105.722 15.5634 134.864 15.4531 151.129 14.9021C167.394 14.3511 185.014 12.8083 185.014 12.6981C185.014 12.5879 166.716 13.5797 150.451 14.2409C134.864 14.9021 106.4 15.3429 105.722 15.4531Z" fill="white"/>
</svg>
